<?xml version="1.0" encoding="UTF-8"?>
<svg id="Capa_2" data-name="Capa 2" xmlns="http://www.w3.org/2000/svg" viewBox="0 0 989.64 202.6">
  <defs>
    <style>
      .cls-1 {
        font-family: Futura-Medium, Futura;
        font-size: 50px;
        font-weight: 500;
      }

      .cls-2 {
        fill: #fff;
      }

      .cls-3 {
        letter-spacing: -.02em;
      }

      .cls-4 {
        letter-spacing: -.04em;
      }

      .cls-5 {
        fill: #fffb05;
      }

      .cls-6 {
        letter-spacing: -.03em;
      }

      .cls-7 {
        letter-spacing: -.03em;
      }

      .cls-8 {
        letter-spacing: 0em;
      }

      .cls-9 {
        letter-spacing: .02em;
      }

      .cls-10 {
        fill: #8bd8ff;
      }

      .cls-11 {
        fill: #999;
      }

      .cls-12 {
        letter-spacing: 0em;
      }

      .cls-13 {
        letter-spacing: 0em;
      }
    </style>
  </defs>
  <g id="Capa_1-2" data-name="Capa 1">
    <text class="cls-1" transform="translate(231.64 66.35)"><tspan class="cls-12" x="0" y="0">L</tspan><tspan class="cls-3" x="22.47" y="0">L</tspan><tspan class="cls-12" x="43.79" y="0">UVIA DE IDEAS </tspan><tspan class="cls-12" x="0" y="56">JUEGOS DE ME</tspan><tspan class="cls-8" x="377.04" y="56">S</tspan><tspan class="cls-12" x="406.1" y="56">A </tspan><tspan class="cls-12" x="0" y="112">HERRAMIEN</tspan><tspan class="cls-4" x="298.18" y="112">T</tspan><tspan class="cls-12" x="320.55" y="112">AS DI</tspan><tspan class="cls-7" x="454.72" y="112">D</tspan><tspan class="cls-6" x="489.47" y="112">Á</tspan><tspan class="cls-13" x="525.05" y="112">CTI</tspan><tspan class="cls-9" x="599.85" y="112">C</tspan><tspan class="cls-12" x="636.08" y="112">AS</tspan></text>
    <circle class="cls-10" cx="101.3" cy="101.3" r="101.3"/>
    <g>
      <g>
        <path d="M99.85,113.44c6.41-.72,13.38,3.73,14.12,10.41.32,2.86-.52,7.44.14,9.97.77,2.99,4.36,6.18,6.22,8.58,10.61,13.68,4.88,33.92-11.92,38.81-22.56,6.56-40.06-18.56-26.55-37.83,2.11-3.01,6.67-6.82,7.01-10.61.37-4.09-.85-8.58.96-12.43,1.7-3.61,6.09-6.45,10.02-6.89ZM93.91,122.54c4.81-.22,9.95,0,14.8,0,.05,0,.48.59.35-.12-.42-2.4-4.47-4.39-6.7-4.58-3.15-.26-7.8,1.25-8.8,4.58-.21.68.33.11.35.11ZM109.77,127h-16.68v4.46h16.68v-4.46ZM99.43,135.69h-7.05c-1.69,5-6.22,7.73-8.73,12.29-6.51,11.85.02,26.69,13.19,29.64,17.44,3.92,31.11-14.79,22.04-30.26-2.52-4.29-6.93-6.78-8.41-11.68h-7.28v12.92c3.1.71,5.96,3.79,5.39,7.15-.24,1.41-1.77,2.16-3.02,1.4s-.77-1.7-1.01-2.75c-.66-2.88-5.49-3.12-6.37.11-.28,1.02.08,2.14-1.03,2.72-1.36.72-2.73-.14-3.02-1.58-.6-3.02,2.48-6.36,5.3-7.06v-12.92Z"/>
        <path class="cls-5" d="M99.43,135.69v12.92c-2.82.7-5.9,4.04-5.3,7.06.29,1.44,1.66,2.3,3.02,1.58,1.11-.58.75-1.71,1.03-2.72.88-3.22,5.7-2.98,6.37-.11.24,1.05-.23,1.99,1.01,2.75s2.78,0,3.02-1.4c.57-3.36-2.29-6.44-5.39-7.15v-12.92h7.28c1.48,4.89,5.89,7.38,8.41,11.68,9.07,15.47-4.6,34.18-22.04,30.26-13.18-2.96-19.7-17.79-13.19-29.64,2.51-4.57,7.04-7.29,8.73-12.29h7.05Z"/>
        <rect class="cls-11" x="93.09" y="127" width="16.68" height="4.46"/>
        <path class="cls-11" d="M93.91,122.54s-.55.57-.35-.11c1.01-3.33,5.65-4.85,8.8-4.58,2.23.19,6.28,2.17,6.7,4.58.12.71-.3.12-.35.12-4.85,0-9.99-.22-14.8,0Z"/>
      </g>
      <g>
        <path d="M52.28,110.81c4.64-.52,9.69,2.7,10.23,7.54.23,2.07-.37,5.38.1,7.22.56,2.16,3.16,4.47,4.51,6.21,7.68,9.9,3.53,24.56-8.63,28.1-16.34,4.75-29-13.44-19.23-27.39,1.53-2.18,4.83-4.94,5.08-7.68.27-2.96-.62-6.21.69-9,1.23-2.61,4.41-4.67,7.26-4.99ZM47.98,117.39c3.48-.16,7.2,0,10.72,0,.04,0,.35.43.26-.09-.3-1.74-3.24-3.18-4.85-3.31-2.28-.19-5.64.91-6.37,3.32-.15.49.24.08.25.08ZM59.46,120.62h-12.08v3.23h12.08v-3.23ZM51.98,126.92h-5.1c-1.23,3.62-4.51,5.59-6.32,8.9-4.71,8.58.01,19.32,9.55,21.46,12.62,2.83,22.53-10.71,15.96-21.91-1.82-3.11-5.02-4.91-6.09-8.45h-5.27v9.36c2.25.51,4.31,2.74,3.9,5.18-.17,1.02-1.28,1.56-2.19,1.02s-.56-1.23-.73-1.99c-.48-2.08-3.97-2.26-4.61.08-.2.74.06,1.55-.75,1.97-.99.52-1.98-.1-2.19-1.14-.43-2.19,1.8-4.6,3.84-5.11v-9.36Z"/>
        <path class="cls-5" d="M51.98,126.92v9.36c-2.04.51-4.27,2.92-3.84,5.11.21,1.04,1.2,1.66,2.19,1.14.8-.42.55-1.24.75-1.97.64-2.33,4.13-2.16,4.61-.08.17.76-.17,1.44.73,1.99s2.02,0,2.19-1.02c.41-2.43-1.65-4.67-3.9-5.18v-9.36h5.27c1.07,3.54,4.27,5.35,6.09,8.45,6.57,11.2-3.33,24.75-15.96,21.91-9.54-2.14-14.27-12.88-9.55-21.46,1.82-3.31,5.1-5.28,6.32-8.9h5.1Z"/>
        <rect class="cls-11" x="47.38" y="120.62" width="12.08" height="3.23"/>
        <path class="cls-11" d="M47.98,117.39s-.4.41-.25-.08c.73-2.41,4.09-3.51,6.37-3.32,1.62.13,4.55,1.57,4.85,3.31.09.52-.22.09-.26.09-3.51,0-7.23-.16-10.72,0Z"/>
      </g>
      <g>
        <path d="M148.28,110.81c4.64-.52,9.69,2.7,10.23,7.54.23,2.07-.37,5.38.1,7.22.56,2.16,3.16,4.47,4.51,6.21,7.68,9.9,3.53,24.56-8.63,28.1-16.34,4.75-29-13.44-19.23-27.39,1.53-2.18,4.83-4.94,5.08-7.68.27-2.96-.62-6.21.69-9,1.23-2.61,4.41-4.67,7.26-4.99ZM143.98,117.39c3.48-.16,7.2,0,10.72,0,.04,0,.35.43.26-.09-.3-1.74-3.24-3.18-4.85-3.31-2.28-.19-5.64.91-6.37,3.32-.15.49.24.08.25.08ZM155.47,120.62h-12.08v3.23h12.08v-3.23ZM147.98,126.92h-5.1c-1.23,3.62-4.51,5.59-6.32,8.9-4.71,8.58.01,19.32,9.55,21.46,12.62,2.83,22.53-10.71,15.96-21.91-1.82-3.11-5.02-4.91-6.09-8.45h-5.27v9.36c2.25.51,4.31,2.74,3.9,5.18-.17,1.02-1.28,1.56-2.19,1.02s-.56-1.23-.73-1.99c-.48-2.08-3.97-2.26-4.61.08-.2.74.06,1.55-.75,1.97-.99.52-1.98-.1-2.19-1.14-.43-2.19,1.8-4.6,3.84-5.11v-9.36Z"/>
        <path class="cls-5" d="M147.98,126.92v9.36c-2.04.51-4.27,2.92-3.84,5.11.21,1.04,1.2,1.66,2.19,1.14.8-.42.55-1.24.75-1.97.64-2.33,4.13-2.16,4.61-.08.17.76-.17,1.44.73,1.99s2.02,0,2.19-1.02c.41-2.43-1.65-4.67-3.9-5.18v-9.36h5.27c1.07,3.54,4.27,5.35,6.09,8.45,6.57,11.2-3.33,24.75-15.96,21.91-9.54-2.14-14.27-12.88-9.55-21.46,1.82-3.31,5.1-5.28,6.32-8.9h5.1Z"/>
        <rect class="cls-11" x="143.39" y="120.62" width="12.08" height="3.23"/>
        <path class="cls-11" d="M143.98,117.39s-.4.41-.25-.08c.73-2.41,4.09-3.51,6.37-3.32,1.62.13,4.55,1.57,4.85,3.31.09.52-.22.09-.26.09-3.51,0-7.23-.16-10.72,0Z"/>
      </g>
    </g>
    <g>
      <path d="M113.93,79.41c1.98-.59,3.29,1.14,2.3,2.95-3.65,6.67-13.58,8.07-19.95,4.77-1.66-.86-7.35-4.58-4.8-6.78,1.92-1.65,3.31.92,4.6,1.94,4.47,3.52,11,3.69,15.29-.2.63-.57,1.99-2.52,2.56-2.69Z"/>
      <path d="M126.67,95.99h-.32c-4.75,4.2-10.92,7.15-17.13,8.46-6.59,1.39-13.45,1.29-19.84-1.02-1.16-.42-3.14-1.64-4.15-1.76-2.28-.28-5.9-.03-8.32,0-14.75.18-30.36,2.97-40.08-10.86-10.9-15.5-2.05-37.7,15.88-42.54,3.91-13,18.73-20.15,31.65-17.32,12.2-10.32,32.05-9.51,43.78,1.14,14.71-2.24,29.13,8.69,30.79,23.45,6.58,3.31,11.59,10.13,12.73,17.45,2.28,14.65-5.96,26.92-20.45,29.94-8.25,1.72-19.67.9-24.54-6.93ZM75.07,82.21c-7.39,2.15-15.82,3.11-22.09-2.29-1.19-1.03-3.74-3.91-1.25-4.98,2.03-.87,2.4.77,3.44,1.7,3.76,3.39,9.08,3.64,13.83,2.88,1.07-.17,5.83-1.14,6.43-1.67,3.34-11.7,13.42-18.09,25.46-14.78,1.69.47,7.64,2.25,4.82,4.82-1.5,1.36-4.17-.57-5.96-1.06-19.79-5.38-28.44,21.77-13.14,30.85,11.47,6.81,28.69,3.44,38.14-5.53-.46-3.74-.35-6.98,1.07-10.51,3.93-9.78,16.8-14.73,26.01-9.16,1.88,1.13,7.11,6.42,3.82,8.15-2.24,1.18-2.81-1.58-3.71-2.79-5.64-7.62-18.93-2.87-22.37,5.15-7.72,18.04,19.03,20.02,30,12.07,10.94-7.93,11.63-26.1.56-34.17-1.57-1.14-3.33-1.7-4.77-2.89-.49-2.24-.65-4.52-1.39-6.7-3.01-8.84-13.11-16.2-22.58-15.47-1.24.1-3.01.85-4.11.61-1.93-1.23-3.45-2.76-5.42-3.98-9.81-6.07-23.33-6.23-33,.2,5.11,2.28,9.31,6.29,11.48,11.48.8,1.92,3.21,8.34-1.04,7.39-1.47-.33-1.66-3.33-2.12-4.66-4.45-12.9-20.46-15.36-31.34-9.03-7.79,4.53-12.43,14.15-8.72,22.85.62,1.45,2.27,2.92.7,4.34-2.43,2.21-4.22-2.21-4.82-3.94-.32-.91-1.09-3.55-1.09-4.38v-3.83c-14.37,4.85-20.67,23.5-11.55,35.94,8.05,10.99,21.1,9.2,33.09,8.88,2.22-.06,4.46.06,6.68,0,.1-.38-.16-.44-.33-.66-2.05-2.66-4.7-6.34-4.7-9.95v-4.92Z"/>
      <path d="M112.4,40.92c3-.89,2.85,2.68,3.46,4.54,2.52,7.64,11.58,10.91,18.9,8.42,1.35-.46,4-2.27,4.92-2.31,1.95-.09,2.46,2.28,1.33,3.53-.45.5-2.48,1.52-3.19,1.84-3.57,1.6-7.57,2.33-11.46,1.65-3.99,2.21-6.2,6.18-6.9,10.61-.19,1.2.32,3.13-1.66,3.38-3.73.48-1.93-5.98-1.28-7.86.99-2.87,2.91-5.51,5.13-7.55-4.37-2.3-8.16-5.83-9.68-10.65-.44-1.38-1.54-5.01.43-5.59Z"/>
      <path d="M83.12,47.06c1.87-.15,4.79-.27,4.41,2.43-.28,1.98-2.85,1.29-4.23,1.46-6.16.77-11.25,5.86-11.72,12.11-.12,1.62.83,4.62-1.25,5.09s-2.48-1.06-2.66-2.72c-.97-9.01,6.53-17.67,15.46-18.39Z"/>
      <path class="cls-2" d="M75.07,82.21v4.92c0,3.61,2.65,7.29,4.7,9.95.17.22.42.28.33.66-2.22.05-4.46-.07-6.68,0-11.99.32-25.04,2.1-33.09-8.88-9.11-12.44-2.81-31.08,11.55-35.94v3.83c0,.83.77,3.47,1.09,4.38.6,1.74,2.39,6.15,4.82,3.94,1.57-1.42-.09-2.9-.7-4.34-3.71-8.7.93-18.32,8.72-22.85,10.88-6.33,26.89-3.87,31.34,9.03.46,1.33.65,4.33,2.12,4.66,4.25.95,1.85-5.46,1.04-7.39-2.17-5.19-6.37-9.2-11.48-11.48,9.68-6.43,23.19-6.27,33-.2,1.98,1.22,3.5,2.75,5.42,3.98,1.11.24,2.88-.51,4.11-.61,9.47-.73,19.57,6.63,22.58,15.47.74,2.19.9,4.47,1.39,6.7,1.43,1.19,3.2,1.75,4.77,2.89,11.07,8.06,10.38,26.24-.56,34.17-10.97,7.95-37.72,5.97-30-12.07,3.43-8.03,16.72-12.77,22.37-5.15.9,1.22,1.47,3.97,3.71,2.79,3.3-1.73-1.94-7.02-3.82-8.15-9.21-5.56-22.08-.62-26.01,9.16-1.42,3.52-1.53,6.76-1.07,10.51-9.45,8.97-26.67,12.34-38.14,5.53-15.3-9.08-6.65-36.23,13.14-30.85,1.79.49,4.46,2.42,5.96,1.06,2.82-2.57-3.13-4.35-4.82-4.82-12.04-3.32-22.12,3.08-25.46,14.78-.59.53-5.36,1.49-6.43,1.67-4.75.77-10.07.51-13.83-2.88-1.04-.93-1.41-2.58-3.44-1.7-2.49,1.07.06,3.95,1.25,4.98,6.27,5.4,14.7,4.44,22.09,2.29ZM112.4,40.92c-1.98.59-.87,4.21-.43,5.59,1.52,4.83,5.31,8.36,9.68,10.65-2.21,2.04-4.13,4.68-5.13,7.55-.65,1.88-2.44,8.34,1.28,7.86,1.98-.26,1.47-2.18,1.66-3.38.71-4.43,2.91-8.4,6.9-10.61,3.89.68,7.88-.05,11.46-1.65.71-.32,2.73-1.34,3.19-1.84,1.13-1.25.62-3.62-1.33-3.53-.93.04-3.58,1.85-4.92,2.31-7.32,2.49-16.38-.78-18.9-8.42-.61-1.86-.47-5.42-3.46-4.54ZM83.12,47.06c-8.93.71-16.43,9.38-15.46,18.39.18,1.65.66,3.16,2.66,2.72s1.13-3.47,1.25-5.09c.48-6.26,5.56-11.35,11.72-12.11,1.38-.17,3.95.51,4.23-1.46.39-2.71-2.54-2.58-4.41-2.43ZM113.93,79.41c-.57.17-1.93,2.12-2.56,2.69-4.3,3.89-10.83,3.71-15.29.2-1.3-1.02-2.68-3.6-4.6-1.94-2.56,2.2,3.14,5.92,4.8,6.78,6.37,3.3,16.3,1.89,19.95-4.77.99-1.81-.32-3.55-2.3-2.95Z"/>
    </g>
  </g>
</svg>